<?xml version="1.0" encoding="utf-8"?>
<!-- Generator: Adobe Illustrator 24.0.0, SVG Export Plug-In . SVG Version: 6.00 Build 0)  -->
<svg
  version="1.1"
  id="图层_1"
  xmlns="http://www.w3.org/2000/svg"
  xmlns:xlink="http://www.w3.org/1999/xlink"
  x="0px"
  y="0px"
  viewBox="0 0 48 48"
  style="enable-background:new 0 0 48 48;"
  xml:space="preserve"
>
  <style type="text/css">
    .st0 {
      fill-rule: evenodd;
      clip-rule: evenodd;
      fill: #EDF0F3;
    }

    .st1 {
      fill: #22AB68;
    }

    .st2 {
      fill: #BDC4D0;
    }

    .st3 {
      fill: #2878FF;
    }

    .st4 {
      fill: #FECD34;
    }
    .star,.gift{
      transform-box: fill-box;
      transform-origin: center;
    }
    .star:hover{
      animation: shaking 500 ease;
    }
    @keyframes shaking{
      0%,100%{
        transform: rotate(0);
      }20%{
        transform: rotate(20deg);
      }40%{
        transform: rotate(10deg);
      }60%{
        transform: rotate(15deg);
      }
    }
  </style>
  <g class="gift">
    <path
      class="st0"
      d="M24,28.8c3.1,0,5-1.6,5.8-4.7c0.2-0.8,0.9-1.4,1.7-1.4h5.4c0.8,0,1.5,0.7,1.5,1.5v16c0,1-0.8,1.7-1.8,1.7
					H11.4c-1,0-1.8-0.8-1.8-1.7v-16c0-0.8,0.7-1.5,1.5-1.5h5.4c0.8,0,1.5,0.6,1.7,1.4C19,27.2,20.9,28.8,24,28.8z"
    />
    <path
      class="st1"
      d="M20.6,25.3c0,0.3,0.2,0.5,0.5,0.6c0.3,0,0.5-0.2,0.5-0.5c0.4-3.7,2.6-7,5.9-8.9c0.3-0.1,0.4-0.5,0.2-0.7
					c-0.2-0.3-0.5-0.3-0.8-0.2C23.4,17.6,21.1,21.2,20.6,25.3z"
    />
    <path
      class="st1"
      d="M21,25.3c0,0.1,0,0.1,0.1,0.2l0,0.4l0-0.4c0.1,0,0.1-0.1,0.1-0.1c0.2-1.9,0.9-3.7,2-5.3
					c1.1-1.6,2.5-2.9,4.1-3.9l0,0l0,0c0,0,0.1,0,0.1-0.1c0,0,0-0.1,0-0.1l0.4-0.2L27.4,16c-0.1-0.1-0.1-0.1-0.2-0.1L27,15.5l0.2,0.3
					c-1.7,1-3.2,2.4-4.2,4C21.9,21.6,21.2,23.4,21,25.3l-0.4,0L21,25.3z M20.2,25.3L20.2,25.3L20.2,25.3c0.2-2.1,0.9-4,2.1-5.8
					c1.2-1.8,2.7-3.2,4.5-4.3l0,0l0,0c0.2-0.1,0.5-0.1,0.7-0.1c0.2,0.1,0.4,0.2,0.6,0.4l0,0l0,0c0.1,0.2,0.2,0.5,0.1,0.7
					c-0.1,0.2-0.2,0.4-0.5,0.6l-0.2-0.4l0.2,0.3c-1.6,0.9-2.9,2.1-3.9,3.7c-1,1.5-1.6,3.2-1.8,4.9c0,0.2-0.1,0.4-0.3,0.6
					c-0.2,0.2-0.4,0.2-0.6,0.3l0,0l0,0c-0.3,0-0.5-0.1-0.6-0.3C20.3,25.8,20.2,25.5,20.2,25.3z"
    />
    <path
      class="st1"
      d="M24.2,24.4c-0.2,0.2-0.2,0.6,0,0.8c0.1,0.1,0.2,0.2,0.3,0.2c0.1,0,0.3-0.1,0.4-0.2c1.4-1.4,3.2-2.4,5.1-2.7
					c0.3-0.1,0.4-0.4,0.4-0.7c-0.1-0.3-0.3-0.5-0.6-0.4C27.7,21.8,25.8,22.8,24.2,24.4z"
    />
    <path
      class="st1"
      d="M30,22.1c0.1,0,0.1-0.1,0.1-0.2l0.4-0.1l-0.4,0.1c0-0.1-0.1-0.1-0.1-0.1l0,0l0,0c-2.1,0.4-3.9,1.3-5.4,2.9
					l-0.3-0.3l0.3,0.3c-0.1,0.1-0.1,0.2,0,0.3l-0.3,0.3l0.3-0.3c0,0,0,0,0,0c0,0,0.1,0,0.1,0l0,0l0,0C26.2,23.4,28,22.5,30,22.1
					l0.1,0.4L30,22.1z M30.2,22.9L30.2,22.9L30.2,22.9c-1.9,0.3-3.5,1.2-4.9,2.6l-0.3-0.3l0.3,0.3c-0.2,0.2-0.4,0.3-0.7,0.3
					c-0.3,0-0.5-0.1-0.6-0.3l0,0l0,0c-0.2-0.2-0.2-0.4-0.2-0.7c0-0.3,0.1-0.5,0.2-0.7l0,0l0,0c1.7-1.7,3.6-2.7,5.8-3.1l0.1,0.4
					L29.8,21c0.3-0.1,0.5,0,0.7,0.2c0.2,0.1,0.3,0.3,0.4,0.6l0,0l0,0c0,0.2,0,0.5-0.1,0.7C30.6,22.7,30.4,22.8,30.2,22.9z"
    />
    <g>
      <path
        class="st2"
        d="M21.4,32.2h6.4c0.4,0,0.8,0.4,0.8,0.8v1.6c0,0.4-0.4,0.8-0.8,0.8h-6.4c-0.4,0-0.8-0.4-0.8-0.8V33
						C20.6,32.6,21,32.2,21.4,32.2z"
      />
    </g>
    <g>
      <path
        class="st3"
        d="M9.9,12.8l24.7-6.6c0.9-0.2,1.7,0.3,2,1.1l0.8,3.1c0.2,0.9-0.3,1.7-1.1,2L11.6,19c-0.9,0.2-1.7-0.3-2-1.1
						l-0.8-3.1C8.6,13.9,9.1,13.1,9.9,12.8z"
      />
    </g>
    <path
      class="st4"
      d="M32.6,13.2l-2.7,1.1c-0.3,0.1-0.5,0.4-0.6,0.8c0,0.4,0.2,0.7,0.5,0.9l2.5,1.5c0.3,0.2,0.4,0.4,0.5,0.7
					l0.2,3c0,0.4,0.3,0.7,0.6,0.8c0.3,0.1,0.7,0.1,0.9-0.2l2.1-2c0.2-0.2,0.5-0.3,0.8-0.2l2.8,0.7c0.3,0.1,0.7,0,0.9-0.3
					c0.2-0.3,0.3-0.6,0.1-1l-1.2-2.8c-0.1-0.3-0.1-0.6,0.1-0.9l1.5-2.5c0.2-0.3,0.2-0.7,0-1c-0.2-0.3-0.5-0.5-0.9-0.4L38,11.9
					c-0.3,0-0.6-0.1-0.8-0.3l-1.9-2.3c-0.2-0.3-0.6-0.4-0.9-0.3C34,9,33.8,9.3,33.7,9.6l-0.6,2.9C33.1,12.8,32.9,13.1,32.6,13.2z"
    />
    <path
      class="st4"
      d="M7.3,19.5l1-0.4c0.1,0,0.3,0,0.4,0.1c0.1,0.1,0.1,0.2,0.1,0.4l-0.3,1.1c0,0.1,0,0.2,0.1,0.3l0.7,0.9
					c0.1,0.1,0.1,0.2,0.1,0.4c0,0.1-0.2,0.2-0.3,0.2l-1.1,0c-0.1,0-0.2,0.1-0.3,0.2l-0.6,0.9c-0.1,0.1-0.2,0.2-0.3,0.2
					c-0.1,0-0.2-0.1-0.3-0.2l-0.4-1c0-0.1-0.1-0.2-0.2-0.2l-1.1-0.3c-0.1,0-0.2-0.1-0.3-0.3c0-0.1,0-0.3,0.1-0.3l0.8-0.7
					c0.1-0.1,0.1-0.2,0.1-0.3l-0.1-1.1c0-0.1,0-0.3,0.2-0.3c0.1-0.1,0.3-0.1,0.4,0l0.9,0.6C7,19.5,7.2,19.5,7.3,19.5z"
    />

  </g>
  <g class="star">
    <path
      class="st4"
      d="M44.1,11.3c0,0.1,0.1,0.3,0.3,0.2l0.2-0.1c0.6-0.5,1.2-0.8,2-0.8c0.1,0,0.2-0.1,0.1-0.2l0,0
				c-0.3-0.7-0.4-1.4-0.2-2.1l0-0.2c0-0.2-0.2-0.3-0.3-0.2L46,7.9c-0.6,0.5-1.3,0.8-2,0.9l0,0c-0.1,0-0.2,0.1-0.1,0.2
				c0.3,0.7,0.4,1.4,0.3,2.2L44.1,11.3z"
    />

  </g>
</svg>