<svg fill="none" viewBox="0 0 24 24" id="icon-fc-export-transparent"><defs><mask id="icon-fc-export-transparent_master_svg0_2105_04533"><g style="mix-blend-mode:passthrough"><ellipse cx="12" cy="12" rx="10" ry="10" fill="#FFFFFF" fill-opacity="1"></ellipse></g></mask></defs><g style="mix-blend-mode:passthrough"><g style="mix-blend-mode:passthrough"><g style="mix-blend-mode:passthrough" mask="url(#icon-fc-export-transparent_master_svg0_2105_04533)"><g style="mix-blend-mode:passthrough"><g style="mix-blend-mode:passthrough"><g style="mix-blend-mode:passthrough"><g style="mix-blend-mode:passthrough"><rect x="3" y="3" width="3" height="3.1499998569488525" rx="0" fill="#D2D3D4" fill-opacity="1"></rect></g><g style="mix-blend-mode:passthrough"><rect x="6" y="3" width="3" height="3.1499998569488525" rx="0" fill="#FFFFFF" fill-opacity="1"></rect></g><g style="mix-blend-mode:passthrough"><rect x="11.999998092651367" y="3" width="3" height="3.1499998569488525" rx="0" fill="#FFFFFF" fill-opacity="1"></rect></g><g style="mix-blend-mode:passthrough"><rect x="9" y="3" width="3" height="3.1499998569488525" rx="0" fill="#D2D3D4" fill-opacity="1"></rect></g><g style="mix-blend-mode:passthrough"><rect x="18" y="3" width="3" height="3.1499998569488525" rx="0" fill="#FFFFFF" fill-opacity="1"></rect></g><g style="mix-blend-mode:passthrough"><rect x="15" y="3" width="3" height="3.1499998569488525" rx="0" fill="#D2D3D4" fill-opacity="1"></rect></g></g><g style="mix-blend-mode:passthrough"><g style="mix-blend-mode:passthrough"><rect x="18" y="6.1499998569488525" width="3" height="3.1499998569488525" rx="0" fill="#D2D3D4" fill-opacity="1"></rect></g><g style="mix-blend-mode:passthrough"><rect x="3" y="6.1499998569488525" width="3" height="3.1499998569488525" rx="0" fill="#FFFFFF" fill-opacity="1"></rect></g><g style="mix-blend-mode:passthrough"><rect x="9" y="6.1499998569488525" width="3" height="3.1499998569488525" rx="0" fill="#FFFFFF" fill-opacity="1"></rect></g><g style="mix-blend-mode:passthrough"><rect x="6" y="6.1499998569488525" width="3" height="3.1499998569488525" rx="0" fill="#D2D3D4" fill-opacity="1"></rect></g><g style="mix-blend-mode:passthrough"><rect x="15" y="6.1499998569488525" width="3" height="3.1499998569488525" rx="0" fill="#FFFFFF" fill-opacity="1"></rect></g><g style="mix-blend-mode:passthrough"><rect x="11.999998092651367" y="6.1499998569488525" width="3" height="3.1499998569488525" rx="0" fill="#D2D3D4" fill-opacity="1"></rect></g></g></g><g style="mix-blend-mode:passthrough"><g style="mix-blend-mode:passthrough"><g style="mix-blend-mode:passthrough"><rect x="3" y="9.299999713897705" width="3" height="2.700000047683716" rx="0" fill="#D2D3D4" fill-opacity="1"></rect></g><g style="mix-blend-mode:passthrough"><rect x="6" y="9.299999713897705" width="3" height="2.700000047683716" rx="0" fill="#FFFFFF" fill-opacity="1"></rect></g><g style="mix-blend-mode:passthrough"><rect x="11.999998092651367" y="9.299999713897705" width="3" height="2.700000047683716" rx="0" fill="#FFFFFF" fill-opacity="1"></rect></g><g style="mix-blend-mode:passthrough"><rect x="9" y="9.299999713897705" width="3" height="2.700000047683716" rx="0" fill="#D2D3D4" fill-opacity="1"></rect></g><g style="mix-blend-mode:passthrough"><rect x="18" y="9.299999713897705" width="3" height="2.700000047683716" rx="0" fill="#FFFFFF" fill-opacity="1"></rect></g><g style="mix-blend-mode:passthrough"><rect x="15" y="9.299999713897705" width="3" height="2.700000047683716" rx="0" fill="#D2D3D4" fill-opacity="1"></rect></g></g><g style="mix-blend-mode:passthrough"><g style="mix-blend-mode:passthrough"><rect x="18" y="11.999999761581421" width="3" height="2.700000047683716" rx="0" fill="#D2D3D4" fill-opacity="1"></rect></g><g style="mix-blend-mode:passthrough"><rect x="3" y="11.999999761581421" width="3" height="2.700000047683716" rx="0" fill="#FFFFFF" fill-opacity="1"></rect></g><g style="mix-blend-mode:passthrough"><rect x="9" y="11.999999761581421" width="3" height="2.700000047683716" rx="0" fill="#FFFFFF" fill-opacity="1"></rect></g><g style="mix-blend-mode:passthrough"><rect x="6" y="11.999999761581421" width="3" height="2.700000047683716" rx="0" fill="#D2D3D4" fill-opacity="1"></rect></g><g style="mix-blend-mode:passthrough"><rect x="15" y="11.999999761581421" width="3" height="2.700000047683716" rx="0" fill="#FFFFFF" fill-opacity="1"></rect></g><g style="mix-blend-mode:passthrough"><rect x="11.999998092651367" y="11.999999761581421" width="3" height="2.700000047683716" rx="0" fill="#D2D3D4" fill-opacity="1"></rect></g></g></g><g style="mix-blend-mode:passthrough"><g style="mix-blend-mode:passthrough"><g style="mix-blend-mode:passthrough"><rect x="3" y="14.69999885559082" width="3" height="3.1499998569488525" rx="0" fill="#D2D3D4" fill-opacity="1"></rect></g><g style="mix-blend-mode:passthrough"><rect x="6" y="14.69999885559082" width="3" height="3.1499998569488525" rx="0" fill="#FFFFFF" fill-opacity="1"></rect></g><g style="mix-blend-mode:passthrough"><rect x="11.999998092651367" y="14.69999885559082" width="3" height="3.1499998569488525" rx="0" fill="#FFFFFF" fill-opacity="1"></rect></g><g style="mix-blend-mode:passthrough"><rect x="9" y="14.69999885559082" width="3" height="3.1499998569488525" rx="0" fill="#D2D3D4" fill-opacity="1"></rect></g><g style="mix-blend-mode:passthrough"><rect x="18" y="14.69999885559082" width="3" height="3.1499998569488525" rx="0" fill="#FFFFFF" fill-opacity="1"></rect></g><g style="mix-blend-mode:passthrough"><rect x="15" y="14.69999885559082" width="3" height="3.1499998569488525" rx="0" fill="#D2D3D4" fill-opacity="1"></rect></g></g><g style="mix-blend-mode:passthrough"><g style="mix-blend-mode:passthrough"><rect x="18" y="17.849998712539673" width="3" height="3.1499998569488525" rx="0" fill="#D2D3D4" fill-opacity="1"></rect></g><g style="mix-blend-mode:passthrough"><rect x="3" y="17.849998712539673" width="3" height="3.1499998569488525" rx="0" fill="#FFFFFF" fill-opacity="1"></rect></g><g style="mix-blend-mode:passthrough"><rect x="9" y="17.849998712539673" width="3" height="3.1499998569488525" rx="0" fill="#FFFFFF" fill-opacity="1"></rect></g><g style="mix-blend-mode:passthrough"><rect x="6" y="17.849998712539673" width="3" height="3.1499998569488525" rx="0" fill="#D2D3D4" fill-opacity="1"></rect></g><g style="mix-blend-mode:passthrough"><rect x="15" y="17.849998712539673" width="3" height="3.1499998569488525" rx="0" fill="#FFFFFF" fill-opacity="1"></rect></g><g style="mix-blend-mode:passthrough"><rect x="11.999998092651367" y="17.849998712539673" width="3" height="3.1499998569488525" rx="0" fill="#D2D3D4" fill-opacity="1"></rect></g></g></g></g></g><g style="mix-blend-mode:passthrough"><ellipse cx="12" cy="12" rx="9.5" ry="9.5" fill-opacity="0" stroke-opacity="1" stroke="currentColor" fill="none" stroke-width="1"></ellipse></g></g></g></svg>